<svg xmlns="http://www.w3.org/2000/svg" width="20" height="20" viewBox="0 0 20 20"><g opacity=".3"><path d="M10 1.5c4.694 0 8.5 3.806 8.5 8.5s-3.806 8.5-8.5 8.5-8.5-3.806-8.5-8.5 3.806-8.5 8.5-8.5m0-1.5c-5.514 0-10 4.486-10 10s4.486 10 10 10 10-4.486 10-10-4.486-10-10-10z" opacity=".9"/><path d="M9.237 11.87h1.135l.14-1.135c1.555-.266 2.816-1.065 2.816-2.83v-.027c0-1.751-1.317-2.844-3.278-2.844-1.513 0-2.563.63-3.376 1.555l1.05 1.121c.672-.714 1.401-1.107 2.283-1.107 1.009 0 1.611.546 1.611 1.331v.028c0 .924-.812 1.499-2.591 1.569l-.07.07.28 2.269zm-.407 3.096h1.877v-1.919h-1.877v1.919z"/></g></svg>